<?xml version="1.0" encoding="UTF-8" standalone="no"?><svg width="32" height="32" viewBox="0 0 32 32" fill="none" xmlns="http://www.w3.org/2000/svg">
<path d="M27.0617 0H4.93827C2.21094 0 0 2.21094 0 4.93827V27.0617C0 29.7891 2.21094 32 4.93827 32H27.0617C29.7891 32 32 29.7891 32 27.0617V4.93827C32 2.21094 29.7891 0 27.0617 0Z" fill="url(#paint0_linear_36_19)"/>
<path d="M9.67906 6.91358C9.67906 5.38627 8.44093 4.14815 6.91363 4.14815C5.38632 4.14815 4.14819 5.38627 4.14819 6.91358C4.14819 8.44089 5.38632 9.67901 6.91363 9.67901C8.44093 9.67901 9.67906 8.44089 9.67906 6.91358Z" stroke="white" stroke-width="1.6"/>
<path d="M9.67906 16C9.67906 14.4727 8.44093 13.2346 6.91363 13.2346C5.38632 13.2346 4.14819 14.4727 4.14819 16C4.14819 17.5273 5.38632 18.7654 6.91363 18.7654C8.44093 18.7654 9.67906 17.5273 9.67906 16Z" stroke="white" stroke-width="1.6"/>
<path d="M9.67906 25.0864C9.67906 23.5591 8.44093 22.321 6.91363 22.321C5.38632 22.321 4.14819 23.5591 4.14819 25.0864C4.14819 26.6137 5.38632 27.8518 6.91363 27.8518C8.44093 27.8518 9.67906 26.6137 9.67906 25.0864Z" stroke="white" stroke-width="1.6"/>
<path d="M18.7655 6.91358C18.7655 5.38627 17.5274 4.14815 16.0001 4.14815C14.4727 4.14815 13.2346 5.38627 13.2346 6.91358C13.2346 8.44089 14.4727 9.67901 16.0001 9.67901C17.5274 9.67901 18.7655 8.44089 18.7655 6.91358Z" stroke="white" stroke-width="1.6"/>
<path d="M18.7655 16C18.7655 14.4727 17.5274 13.2346 16.0001 13.2346C14.4727 13.2346 13.2346 14.4727 13.2346 16C13.2346 17.5273 14.4727 18.7654 16.0001 18.7654C17.5274 18.7654 18.7655 17.5273 18.7655 16Z" stroke="white" stroke-width="1.6"/>
<path d="M18.7655 25.0864C18.7655 23.5591 17.5274 22.321 16.0001 22.321C14.4727 22.321 13.2346 23.5591 13.2346 25.0864C13.2346 26.6137 14.4727 27.8518 16.0001 27.8518C17.5274 27.8518 18.7655 26.6137 18.7655 25.0864Z" stroke="white" stroke-width="1.6"/>
<path d="M27.8518 6.91358C27.8518 5.38627 26.6137 4.14815 25.0864 4.14815C23.559 4.14815 22.3209 5.38627 22.3209 6.91358C22.3209 8.44089 23.559 9.67901 25.0864 9.67901C26.6137 9.67901 27.8518 8.44089 27.8518 6.91358Z" stroke="white" stroke-width="1.6"/>
<path d="M27.8518 16C27.8518 14.4727 26.6137 13.2346 25.0864 13.2346C23.559 13.2346 22.3209 14.4727 22.3209 16C22.3209 17.5273 23.559 18.7654 25.0864 18.7654C26.6137 18.7654 27.8518 17.5273 27.8518 16Z" stroke="white" stroke-width="1.6"/>
<path d="M27.8518 25.0864C27.8518 23.5591 26.6137 22.321 25.0864 22.321C23.559 22.321 22.3209 23.5591 22.3209 25.0864C22.3209 26.6137 23.559 27.8518 25.0864 27.8518C26.6137 27.8518 27.8518 26.6137 27.8518 25.0864Z" stroke="white" stroke-width="1.6"/>
<path d="M6.91357 9.48148V13.2346" stroke="white" stroke-width="1.6"/>
<path d="M22.7161 25.0864H18.963" stroke="white" stroke-width="1.6"/>
<path d="M14.2221 23.3086L8.69128 17.7778" stroke="white" stroke-width="1.6"/>
<path d="M23.5062 8.49382L17.9753 14.0247" stroke="white" stroke-width="1.6"/>
<defs>
<linearGradient id="paint0_linear_36_19" x1="32" y1="0" x2="0" y2="32" gradientUnits="userSpaceOnUse">
<stop stop-color="#264AC8"/>
<stop offset="0.489583" stop-color="#7472EC"/>
<stop offset="1" stop-color="#EB13D5"/>
</linearGradient>
</defs>
</svg>
